# xmcd
#
# Track frame offsets:
#	150
#	16785
#	46275
#	61775
#	80962
#	108842
#	131800
#	158445
#	178767
#	195780
#	213475
#	228532
#	243555
#
# Disc length: 3498 seconds
#
# Revision: 0
# Processed by: cddbd v1.4PL0 Copyright (c) Steve Scherf et al.
# Submitted via: EasyCDDAExtractor 4.5.2.1
#
DISCID=a50da80d
DTITLE=T-Bone Walker - Feelin' The Blues
DYEAR=1968
DGENRE=Blues
TTITLE0=I Hate To See You Go
TTITLE1=Ain't That Cold Baby
TTITLE2=Someone Is Going To Mistreat Me
TTITLE3=Leavin' You Behind
TTITLE4=Feelin' The Blues
TTITLE5=I Want A Little Girl
TTITLE6=Late Blues
TTITLE7=Gee Baby Ain't I Good To You
TTITLE8=Kansas City
TTITLE9=Confessin' The Blues
TTITLE10=Hands Off
TTITLE11=Wee Baby Blues
TTITLE12=Please Send Me Someone To Love
EXTD=
EXTT0=
EXTT1=
EXTT2=
EXTT3=
EXTT4=
EXTT5=
EXTT6=
EXTT7=
EXTT8=
EXTT9=
EXTT10=
EXTT11=
EXTT12=
PLAYORDER=
